<svg width="17" height="17" viewBox="0 0 17 17" fill="none" xmlns="http://www.w3.org/2000/svg">
<g clip-path="url(#clip0_5_1294)">
<rect width="16.0035" height="16.0035" transform="translate(0.00756836 0.0560303)" fill="white"/>
<path d="M10.0107 5.55748V0.556396H1.00879V15.5597H5.00966V12.559H6.00988V15.5597H15.0118V5.55748H10.0107ZM3.50933 13.5592H2.50912V12.559H3.50933V13.5592ZM3.50933 11.0587H2.50912V10.0585H3.50933V11.0587ZM3.50933 8.55814H2.50912V7.55792H3.50933V8.55814ZM3.50933 6.05759H2.50912V5.05738H3.50933V6.05759ZM3.50933 3.55705H2.50912V2.55683H3.50933V3.55705ZM7.5102 2.55683H8.51042V3.55705H7.5102V2.55683ZM6.00988 11.0587H5.00966V10.0585H6.00988V11.0587ZM6.00988 8.55814H5.00966V7.55792H6.00988V8.55814ZM6.00988 6.05759H5.00966V5.05738H6.00988V6.05759ZM6.00988 3.55705H5.00966V2.55683H6.00988V3.55705ZM8.51042 13.5592H7.5102V12.559H8.51042V13.5592ZM8.51042 11.0587H7.5102V10.0585H8.51042V11.0587ZM8.51042 8.55814H7.5102V7.55792H8.51042V8.55814ZM8.51042 6.05759H7.5102V5.05738H8.51042V6.05759ZM14.0116 14.5594H10.0107V13.5592H11.011V12.559H10.0107V11.0587H11.011V10.0585H10.0107V8.55814H11.011V7.55792H10.0107V6.5577H14.0116V14.5594Z" fill="black"/>
<path d="M13.02 12.5587H12.0107V13.5679H13.02V12.5587Z" fill="black"/>
<path d="M13.02 10.0582H12.0107V11.0674H13.02V10.0582Z" fill="black"/>
<path d="M13.02 7.55768H12.0107V8.56689H13.02V7.55768Z" fill="black"/>
</g>
<defs>
<clipPath id="clip0_5_1294">
<rect width="16.0035" height="16.0035" fill="white" transform="translate(0.00756836 0.0560303)"/>
</clipPath>
</defs>
</svg>
