<svg width="17" height="17" viewBox="0 0 17 17" fill="none" xmlns="http://www.w3.org/2000/svg">
<rect width="16.0035" height="16.0035" transform="translate(0.194336 0.956604)" fill="white"/>
<path d="M14.6973 3.45709H1.69444C1.56181 3.45709 1.4346 3.50978 1.34081 3.60357C1.24703 3.69736 1.19434 3.82456 1.19434 3.9572V13.9594C1.19434 14.092 1.24703 14.2192 1.34081 14.313C1.4346 14.4068 1.56181 14.4595 1.69444 14.4595H14.6973C14.8299 14.4595 14.9571 14.4068 15.0509 14.313C15.1447 14.2192 15.1974 14.092 15.1974 13.9594V3.9572C15.1974 3.82456 15.1447 3.69736 15.0509 3.60357C14.9571 3.50978 14.8299 3.45709 14.6973 3.45709ZM8.5028 9.85317C8.41503 9.9214 8.30703 9.95845 8.19586 9.95845C8.08469 9.95845 7.97669 9.9214 7.88892 9.85317L2.99317 6.04547L3.60705 5.25592L8.19586 8.82482L12.7847 5.25592L13.3986 6.04547L8.5028 9.85317Z" fill="black"/>
</svg>
