<svg width="17" height="17" viewBox="0 0 17 17" fill="none" xmlns="http://www.w3.org/2000/svg">
<path d="M15.1298 11.7329C14.9666 11.5591 14.3906 11.0452 13.3316 10.3654C12.2648 9.67959 11.4781 9.252 11.2524 9.15229C11.2325 9.14347 11.2106 9.14023 11.189 9.14293C11.1674 9.14563 11.147 9.15416 11.1299 9.16761C10.7664 9.45111 10.1543 9.97184 10.1215 9.99998C9.90961 10.1816 9.90961 10.1816 9.73613 10.125C9.43106 10.025 8.48336 9.52175 7.65755 8.69407C6.83175 7.86639 6.30257 6.89524 6.20255 6.59048C6.14535 6.4167 6.14535 6.4167 6.32758 6.20477C6.35571 6.17196 6.87676 5.55995 7.16026 5.19674C7.1737 5.17964 7.18223 5.15919 7.18493 5.13761C7.18763 5.11602 7.1844 5.0941 7.17557 5.07422C7.07586 4.84823 6.64827 4.06181 5.9625 2.99501C5.28172 1.93635 4.76849 1.36028 4.5947 1.19712C4.57875 1.18207 4.55904 1.1716 4.53764 1.16682C4.51624 1.16203 4.49395 1.16311 4.47311 1.16993C3.86563 1.37869 3.2795 1.64506 2.72273 1.96541C2.18524 2.27787 1.67639 2.63715 1.20209 3.03909C1.18553 3.05316 1.17312 3.07148 1.16618 3.09207C1.15924 3.11267 1.15804 3.13476 1.1627 3.15599C1.22803 3.46043 1.54028 4.73133 2.50924 6.49171C3.4979 8.28835 4.18305 9.20887 5.63493 10.6557C7.0868 12.1026 8.03639 12.829 9.8349 13.8177C11.5953 14.7866 12.8668 15.0992 13.1706 15.1639C13.1919 15.1685 13.214 15.1673 13.2347 15.1604C13.2553 15.1534 13.2737 15.1411 13.2878 15.1245C13.6897 14.6502 14.0489 14.1414 14.3612 13.6039C14.6815 13.0471 14.9479 12.461 15.1567 11.8535C15.1634 11.8328 15.1644 11.8107 15.1597 11.7895C15.1549 11.7683 15.1446 11.7487 15.1298 11.7329Z" fill="black"/>
</svg>
