<svg width="17" height="17" viewBox="0 0 17 17" fill="none" xmlns="http://www.w3.org/2000/svg">
<g clip-path="url(#clip0_5_1603)">
<path d="M10.6965 9.13028H5.69542V8.13007H0.694336V14.2564C0.694336 14.3559 0.733853 14.4513 0.804195 14.5216C0.874536 14.592 0.96994 14.6315 1.06942 14.6315H15.3225C15.422 14.6315 15.5174 14.592 15.5877 14.5216C15.6581 14.4513 15.6976 14.3559 15.6976 14.2564V8.13007H10.6965V9.13028Z" fill="black"/>
<path d="M15.6978 4.00436C15.6978 3.90489 15.6583 3.80948 15.588 3.73914C15.5176 3.6688 15.4222 3.62928 15.3228 3.62928H12.1971V1.8789C12.1971 1.81258 12.1707 1.74898 12.1238 1.70208C12.077 1.65519 12.0133 1.62885 11.947 1.62885H4.4454C4.37908 1.62885 4.31548 1.65519 4.26858 1.70208C4.22169 1.74898 4.19534 1.81258 4.19534 1.8789V3.62928H1.06966C0.970184 3.62928 0.87478 3.6688 0.804439 3.73914C0.734098 3.80948 0.69458 3.90489 0.69458 4.00436V7.13004H15.6978V4.00436ZM10.9468 3.62928H5.44561V2.87912H10.9468V3.62928Z" fill="black"/>
</g>
<defs>
<clipPath id="clip0_5_1603">
<rect width="16.0035" height="16.0035" fill="white" transform="translate(0.194336 0.128174)"/>
</clipPath>
</defs>
</svg>
